<?xml version="1.0" encoding="UTF-8" standalone="no"?>
<svg
   xmlns:dc="http://purl.org/dc/elements/1.1/"
   xmlns:cc="http://creativecommons.org/ns#"
   xmlns:rdf="http://www.w3.org/1999/02/22-rdf-syntax-ns#"
   xmlns:svg="http://www.w3.org/2000/svg"
   xmlns="http://www.w3.org/2000/svg"
   xmlns:sodipodi="http://sodipodi.sourceforge.net/DTD/sodipodi-0.dtd"
   xmlns:inkscape="http://www.inkscape.org/namespaces/inkscape"
   width="290"
   height="290"
   id="svg2"
   version="1.1"
   inkscape:version="0.91 r13725"
   sodipodi:docname="QRCODE.svg">
  <metadata
     id="metadata473">
    <rdf:RDF>
      <cc:Work
         rdf:about="">
        <dc:format>image/svg+xml</dc:format>
        <dc:type
           rdf:resource="http://purl.org/dc/dcmitype/StillImage" />
      </cc:Work>
    </rdf:RDF>
  </metadata>
  <defs
     id="defs471" />
  <sodipodi:namedview
     pagecolor="#ffffff"
     bordercolor="#666666"
     borderopacity="1"
     objecttolerance="10"
     gridtolerance="10"
     guidetolerance="10"
     inkscape:pageopacity="0"
     inkscape:pageshadow="2"
     inkscape:window-width="1250"
     inkscape:window-height="755"
     id="namedview469"
     showgrid="false"
     inkscape:zoom="1.1508772"
     inkscape:cx="68.698834"
     inkscape:cy="126.64453"
     inkscape:window-x="30"
     inkscape:window-y="1"
     inkscape:window-maximized="1"
     inkscape:current-layer="layer1" />
  <g
     inkscape:groupmode="layer"
     id="layer1"
     inkscape:label="Layer 1">
    <rect
       style="fill:#008080"
       id="rect4038"
       width="292.45764"
       height="294.91525"
       x="0"
       y="0" />
  </g>
  <g
     inkscape:groupmode="layer"
     id="layer2"
     inkscape:label="Layer 2">
    <g
       style="fill:#ffffff"
       id="quickmark"
       transform="translate(40,40)"
       fill="black">
      <rect
         x="0"
         y="0"
         width="10"
         height="10"
         id="rect5"
         style="fill:#ffffff" />
      <rect
         x="10"
         y="0"
         width="10"
         height="10"
         id="rect7"
         style="fill:#ffffff" />
      <rect
         x="20"
         y="0"
         width="10"
         height="10"
         id="rect9"
         style="fill:#ffffff" />
      <rect
         x="30"
         y="0"
         width="10"
         height="10"
         id="rect11"
         style="fill:#ffffff" />
      <rect
         x="40"
         y="0"
         width="10"
         height="10"
         id="rect13"
         style="fill:#ffffff" />
      <rect
         x="50"
         y="0"
         width="10"
         height="10"
         id="rect15"
         style="fill:#ffffff" />
      <rect
         x="60"
         y="0"
         width="10"
         height="10"
         id="rect17"
         style="fill:#ffffff" />
      <rect
         x="90"
         y="0"
         width="10"
         height="10"
         id="rect19"
         style="fill:#ffffff" />
      <rect
         x="120"
         y="0"
         width="10"
         height="10"
         id="rect21"
         style="fill:#ffffff" />
      <rect
         x="140"
         y="0"
         width="10"
         height="10"
         id="rect23"
         style="fill:#ffffff" />
      <rect
         x="150"
         y="0"
         width="10"
         height="10"
         id="rect25"
         style="fill:#ffffff" />
      <rect
         x="160"
         y="0"
         width="10"
         height="10"
         id="rect27"
         style="fill:#ffffff" />
      <rect
         x="170"
         y="0"
         width="10"
         height="10"
         id="rect29"
         style="fill:#ffffff" />
      <rect
         x="180"
         y="0"
         width="10"
         height="10"
         id="rect31"
         style="fill:#ffffff" />
      <rect
         x="190"
         y="0"
         width="10"
         height="10"
         id="rect33"
         style="fill:#ffffff" />
      <rect
         x="200"
         y="0"
         width="10"
         height="10"
         id="rect35"
         style="fill:#ffffff" />
      <rect
         x="0"
         y="10"
         width="10"
         height="10"
         id="rect37"
         style="fill:#ffffff" />
      <rect
         x="60"
         y="10"
         width="10"
         height="10"
         id="rect39"
         style="fill:#ffffff" />
      <rect
         x="90"
         y="10"
         width="10"
         height="10"
         id="rect41"
         style="fill:#ffffff" />
      <rect
         x="110"
         y="10"
         width="10"
         height="10"
         id="rect43"
         style="fill:#ffffff" />
      <rect
         x="140"
         y="10"
         width="10"
         height="10"
         id="rect45"
         style="fill:#ffffff" />
      <rect
         x="200"
         y="10"
         width="10"
         height="10"
         id="rect47"
         style="fill:#ffffff" />
      <rect
         x="0"
         y="20"
         width="10"
         height="10"
         id="rect49"
         style="fill:#ffffff" />
      <rect
         x="20"
         y="20"
         width="10"
         height="10"
         id="rect51"
         style="fill:#ffffff" />
      <rect
         x="30"
         y="20"
         width="10"
         height="10"
         id="rect53"
         style="fill:#ffffff" />
      <rect
         x="40"
         y="20"
         width="10"
         height="10"
         id="rect55"
         style="fill:#ffffff" />
      <rect
         x="60"
         y="20"
         width="10"
         height="10"
         id="rect57"
         style="fill:#ffffff" />
      <rect
         x="80"
         y="20"
         width="10"
         height="10"
         id="rect59"
         style="fill:#ffffff" />
      <rect
         x="120"
         y="20"
         width="10"
         height="10"
         id="rect61"
         style="fill:#ffffff" />
      <rect
         x="140"
         y="20"
         width="10"
         height="10"
         id="rect63"
         style="fill:#ffffff" />
      <rect
         x="160"
         y="20"
         width="10"
         height="10"
         id="rect65"
         style="fill:#ffffff" />
      <rect
         x="170"
         y="20"
         width="10"
         height="10"
         id="rect67"
         style="fill:#ffffff" />
      <rect
         x="180"
         y="20"
         width="10"
         height="10"
         id="rect69"
         style="fill:#ffffff" />
      <rect
         x="200"
         y="20"
         width="10"
         height="10"
         id="rect71"
         style="fill:#ffffff" />
      <rect
         x="0"
         y="30"
         width="10"
         height="10"
         id="rect73"
         style="fill:#ffffff" />
      <rect
         x="20"
         y="30"
         width="10"
         height="10"
         id="rect75"
         style="fill:#ffffff" />
      <rect
         x="30"
         y="30"
         width="10"
         height="10"
         id="rect77"
         style="fill:#ffffff" />
      <rect
         x="40"
         y="30"
         width="10"
         height="10"
         id="rect79"
         style="fill:#ffffff" />
      <rect
         x="60"
         y="30"
         width="10"
         height="10"
         id="rect81"
         style="fill:#ffffff" />
      <rect
         x="80"
         y="30"
         width="10"
         height="10"
         id="rect83"
         style="fill:#ffffff" />
      <rect
         x="120"
         y="30"
         width="10"
         height="10"
         id="rect85"
         style="fill:#ffffff" />
      <rect
         x="140"
         y="30"
         width="10"
         height="10"
         id="rect87"
         style="fill:#ffffff" />
      <rect
         x="160"
         y="30"
         width="10"
         height="10"
         id="rect89"
         style="fill:#ffffff" />
      <rect
         x="170"
         y="30"
         width="10"
         height="10"
         id="rect91"
         style="fill:#ffffff" />
      <rect
         x="180"
         y="30"
         width="10"
         height="10"
         id="rect93"
         style="fill:#ffffff" />
      <rect
         x="200"
         y="30"
         width="10"
         height="10"
         id="rect95"
         style="fill:#ffffff" />
      <rect
         x="0"
         y="40"
         width="10"
         height="10"
         id="rect97"
         style="fill:#ffffff" />
      <rect
         x="20"
         y="40"
         width="10"
         height="10"
         id="rect99"
         style="fill:#ffffff" />
      <rect
         x="30"
         y="40"
         width="10"
         height="10"
         id="rect101"
         style="fill:#ffffff" />
      <rect
         x="40"
         y="40"
         width="10"
         height="10"
         id="rect103"
         style="fill:#ffffff" />
      <rect
         x="60"
         y="40"
         width="10"
         height="10"
         id="rect105"
         style="fill:#ffffff" />
      <rect
         x="80"
         y="40"
         width="10"
         height="10"
         id="rect107"
         style="fill:#ffffff" />
      <rect
         x="90"
         y="40"
         width="10"
         height="10"
         id="rect109"
         style="fill:#ffffff" />
      <rect
         x="100"
         y="40"
         width="10"
         height="10"
         id="rect111"
         style="fill:#ffffff" />
      <rect
         x="110"
         y="40"
         width="10"
         height="10"
         id="rect113"
         style="fill:#ffffff" />
      <rect
         x="120"
         y="40"
         width="10"
         height="10"
         id="rect115"
         style="fill:#ffffff" />
      <rect
         x="140"
         y="40"
         width="10"
         height="10"
         id="rect117"
         style="fill:#ffffff" />
      <rect
         x="160"
         y="40"
         width="10"
         height="10"
         id="rect119"
         style="fill:#ffffff" />
      <rect
         x="170"
         y="40"
         width="10"
         height="10"
         id="rect121"
         style="fill:#ffffff" />
      <rect
         x="180"
         y="40"
         width="10"
         height="10"
         id="rect123"
         style="fill:#ffffff" />
      <rect
         x="200"
         y="40"
         width="10"
         height="10"
         id="rect125"
         style="fill:#ffffff" />
      <rect
         x="0"
         y="50"
         width="10"
         height="10"
         id="rect127"
         style="fill:#ffffff" />
      <rect
         x="60"
         y="50"
         width="10"
         height="10"
         id="rect129"
         style="fill:#ffffff" />
      <rect
         x="80"
         y="50"
         width="10"
         height="10"
         id="rect131"
         style="fill:#ffffff" />
      <rect
         x="90"
         y="50"
         width="10"
         height="10"
         id="rect133"
         style="fill:#ffffff" />
      <rect
         x="120"
         y="50"
         width="10"
         height="10"
         id="rect135"
         style="fill:#ffffff" />
      <rect
         x="140"
         y="50"
         width="10"
         height="10"
         id="rect137"
         style="fill:#ffffff" />
      <rect
         x="200"
         y="50"
         width="10"
         height="10"
         id="rect139"
         style="fill:#ffffff" />
      <rect
         x="0"
         y="60"
         width="10"
         height="10"
         id="rect141"
         style="fill:#ffffff" />
      <rect
         x="10"
         y="60"
         width="10"
         height="10"
         id="rect143"
         style="fill:#ffffff" />
      <rect
         x="20"
         y="60"
         width="10"
         height="10"
         id="rect145"
         style="fill:#ffffff" />
      <rect
         x="30"
         y="60"
         width="10"
         height="10"
         id="rect147"
         style="fill:#ffffff" />
      <rect
         x="40"
         y="60"
         width="10"
         height="10"
         id="rect149"
         style="fill:#ffffff" />
      <rect
         x="50"
         y="60"
         width="10"
         height="10"
         id="rect151"
         style="fill:#ffffff" />
      <rect
         x="60"
         y="60"
         width="10"
         height="10"
         id="rect153"
         style="fill:#ffffff" />
      <rect
         x="80"
         y="60"
         width="10"
         height="10"
         id="rect155"
         style="fill:#ffffff" />
      <rect
         x="100"
         y="60"
         width="10"
         height="10"
         id="rect157"
         style="fill:#ffffff" />
      <rect
         x="120"
         y="60"
         width="10"
         height="10"
         id="rect159"
         style="fill:#ffffff" />
      <rect
         x="140"
         y="60"
         width="10"
         height="10"
         id="rect161"
         style="fill:#ffffff" />
      <rect
         x="150"
         y="60"
         width="10"
         height="10"
         id="rect163"
         style="fill:#ffffff" />
      <rect
         x="160"
         y="60"
         width="10"
         height="10"
         id="rect165"
         style="fill:#ffffff" />
      <rect
         x="170"
         y="60"
         width="10"
         height="10"
         id="rect167"
         style="fill:#ffffff" />
      <rect
         x="180"
         y="60"
         width="10"
         height="10"
         id="rect169"
         style="fill:#ffffff" />
      <rect
         x="190"
         y="60"
         width="10"
         height="10"
         id="rect171"
         style="fill:#ffffff" />
      <rect
         x="200"
         y="60"
         width="10"
         height="10"
         id="rect173"
         style="fill:#ffffff" />
      <rect
         x="80"
         y="70"
         width="10"
         height="10"
         id="rect175"
         style="fill:#ffffff" />
      <rect
         x="110"
         y="70"
         width="10"
         height="10"
         id="rect177"
         style="fill:#ffffff" />
      <rect
         x="120"
         y="70"
         width="10"
         height="10"
         id="rect179"
         style="fill:#ffffff" />
      <rect
         x="0"
         y="80"
         width="10"
         height="10"
         id="rect181"
         style="fill:#ffffff" />
      <rect
         x="20"
         y="80"
         width="10"
         height="10"
         id="rect183"
         style="fill:#ffffff" />
      <rect
         x="30"
         y="80"
         width="10"
         height="10"
         id="rect185"
         style="fill:#ffffff" />
      <rect
         x="40"
         y="80"
         width="10"
         height="10"
         id="rect187"
         style="fill:#ffffff" />
      <rect
         x="50"
         y="80"
         width="10"
         height="10"
         id="rect189"
         style="fill:#ffffff" />
      <rect
         x="60"
         y="80"
         width="10"
         height="10"
         id="rect191"
         style="fill:#ffffff" />
      <rect
         x="100"
         y="80"
         width="10"
         height="10"
         id="rect193"
         style="fill:#ffffff" />
      <rect
         x="120"
         y="80"
         width="10"
         height="10"
         id="rect195"
         style="fill:#ffffff" />
      <rect
         x="140"
         y="80"
         width="10"
         height="10"
         id="rect197"
         style="fill:#ffffff" />
      <rect
         x="150"
         y="80"
         width="10"
         height="10"
         id="rect199"
         style="fill:#ffffff" />
      <rect
         x="160"
         y="80"
         width="10"
         height="10"
         id="rect201"
         style="fill:#ffffff" />
      <rect
         x="170"
         y="80"
         width="10"
         height="10"
         id="rect203"
         style="fill:#ffffff" />
      <rect
         x="180"
         y="80"
         width="10"
         height="10"
         id="rect205"
         style="fill:#ffffff" />
      <rect
         x="10"
         y="90"
         width="10"
         height="10"
         id="rect207"
         style="fill:#ffffff" />
      <rect
         x="20"
         y="90"
         width="10"
         height="10"
         id="rect209"
         style="fill:#ffffff" />
      <rect
         x="30"
         y="90"
         width="10"
         height="10"
         id="rect211"
         style="fill:#ffffff" />
      <rect
         x="100"
         y="90"
         width="10"
         height="10"
         id="rect213"
         style="fill:#ffffff" />
      <rect
         x="120"
         y="90"
         width="10"
         height="10"
         id="rect215"
         style="fill:#ffffff" />
      <rect
         x="130"
         y="90"
         width="10"
         height="10"
         id="rect217"
         style="fill:#ffffff" />
      <rect
         x="140"
         y="90"
         width="10"
         height="10"
         id="rect219"
         style="fill:#ffffff" />
      <rect
         x="150"
         y="90"
         width="10"
         height="10"
         id="rect221"
         style="fill:#ffffff" />
      <rect
         x="160"
         y="90"
         width="10"
         height="10"
         id="rect223"
         style="fill:#ffffff" />
      <rect
         x="200"
         y="90"
         width="10"
         height="10"
         id="rect225"
         style="fill:#ffffff" />
      <rect
         x="0"
         y="100"
         width="10"
         height="10"
         id="rect227"
         style="fill:#ffffff" />
      <rect
         x="20"
         y="100"
         width="10"
         height="10"
         id="rect229"
         style="fill:#ffffff" />
      <rect
         x="40"
         y="100"
         width="10"
         height="10"
         id="rect231"
         style="fill:#ffffff" />
      <rect
         x="60"
         y="100"
         width="10"
         height="10"
         id="rect233"
         style="fill:#ffffff" />
      <rect
         x="70"
         y="100"
         width="10"
         height="10"
         id="rect235"
         style="fill:#ffffff" />
      <rect
         x="100"
         y="100"
         width="10"
         height="10"
         id="rect237"
         style="fill:#ffffff" />
      <rect
         x="110"
         y="100"
         width="10"
         height="10"
         id="rect239"
         style="fill:#ffffff" />
      <rect
         x="130"
         y="100"
         width="10"
         height="10"
         id="rect241"
         style="fill:#ffffff" />
      <rect
         x="150"
         y="100"
         width="10"
         height="10"
         id="rect243"
         style="fill:#ffffff" />
      <rect
         x="170"
         y="100"
         width="10"
         height="10"
         id="rect245"
         style="fill:#ffffff" />
      <rect
         x="180"
         y="100"
         width="10"
         height="10"
         id="rect247"
         style="fill:#ffffff" />
      <rect
         x="190"
         y="100"
         width="10"
         height="10"
         id="rect249"
         style="fill:#ffffff" />
      <rect
         x="10"
         y="110"
         width="10"
         height="10"
         id="rect251"
         style="fill:#ffffff" />
      <rect
         x="70"
         y="110"
         width="10"
         height="10"
         id="rect253"
         style="fill:#ffffff" />
      <rect
         x="80"
         y="110"
         width="10"
         height="10"
         id="rect255"
         style="fill:#ffffff" />
      <rect
         x="90"
         y="110"
         width="10"
         height="10"
         id="rect257"
         style="fill:#ffffff" />
      <rect
         x="100"
         y="110"
         width="10"
         height="10"
         id="rect259"
         style="fill:#ffffff" />
      <rect
         x="130"
         y="110"
         width="10"
         height="10"
         id="rect261"
         style="fill:#ffffff" />
      <rect
         x="170"
         y="110"
         width="10"
         height="10"
         id="rect263"
         style="fill:#ffffff" />
      <rect
         x="180"
         y="110"
         width="10"
         height="10"
         id="rect265"
         style="fill:#ffffff" />
      <rect
         x="190"
         y="110"
         width="10"
         height="10"
         id="rect267"
         style="fill:#ffffff" />
      <rect
         x="200"
         y="110"
         width="10"
         height="10"
         id="rect269"
         style="fill:#ffffff" />
      <rect
         x="0"
         y="120"
         width="10"
         height="10"
         id="rect271"
         style="fill:#ffffff" />
      <rect
         x="10"
         y="120"
         width="10"
         height="10"
         id="rect273"
         style="fill:#ffffff" />
      <rect
         x="20"
         y="120"
         width="10"
         height="10"
         id="rect275"
         style="fill:#ffffff" />
      <rect
         x="30"
         y="120"
         width="10"
         height="10"
         id="rect277"
         style="fill:#ffffff" />
      <rect
         x="40"
         y="120"
         width="10"
         height="10"
         id="rect279"
         style="fill:#ffffff" />
      <rect
         x="50"
         y="120"
         width="10"
         height="10"
         id="rect281"
         style="fill:#ffffff" />
      <rect
         x="60"
         y="120"
         width="10"
         height="10"
         id="rect283"
         style="fill:#ffffff" />
      <rect
         x="70"
         y="120"
         width="10"
         height="10"
         id="rect285"
         style="fill:#ffffff" />
      <rect
         x="80"
         y="120"
         width="10"
         height="10"
         id="rect287"
         style="fill:#ffffff" />
      <rect
         x="110"
         y="120"
         width="10"
         height="10"
         id="rect289"
         style="fill:#ffffff" />
      <rect
         x="130"
         y="120"
         width="10"
         height="10"
         id="rect291"
         style="fill:#ffffff" />
      <rect
         x="160"
         y="120"
         width="10"
         height="10"
         id="rect293"
         style="fill:#ffffff" />
      <rect
         x="190"
         y="120"
         width="10"
         height="10"
         id="rect295"
         style="fill:#ffffff" />
      <rect
         x="80"
         y="130"
         width="10"
         height="10"
         id="rect297"
         style="fill:#ffffff" />
      <rect
         x="90"
         y="130"
         width="10"
         height="10"
         id="rect299"
         style="fill:#ffffff" />
      <rect
         x="100"
         y="130"
         width="10"
         height="10"
         id="rect301"
         style="fill:#ffffff" />
      <rect
         x="120"
         y="130"
         width="10"
         height="10"
         id="rect303"
         style="fill:#ffffff" />
      <rect
         x="130"
         y="130"
         width="10"
         height="10"
         id="rect305"
         style="fill:#ffffff" />
      <rect
         x="150"
         y="130"
         width="10"
         height="10"
         id="rect307"
         style="fill:#ffffff" />
      <rect
         x="160"
         y="130"
         width="10"
         height="10"
         id="rect309"
         style="fill:#ffffff" />
      <rect
         x="170"
         y="130"
         width="10"
         height="10"
         id="rect311"
         style="fill:#ffffff" />
      <rect
         x="190"
         y="130"
         width="10"
         height="10"
         id="rect313"
         style="fill:#ffffff" />
      <rect
         x="0"
         y="140"
         width="10"
         height="10"
         id="rect315"
         style="fill:#ffffff" />
      <rect
         x="10"
         y="140"
         width="10"
         height="10"
         id="rect317"
         style="fill:#ffffff" />
      <rect
         x="20"
         y="140"
         width="10"
         height="10"
         id="rect319"
         style="fill:#ffffff" />
      <rect
         x="30"
         y="140"
         width="10"
         height="10"
         id="rect321"
         style="fill:#ffffff" />
      <rect
         x="40"
         y="140"
         width="10"
         height="10"
         id="rect323"
         style="fill:#ffffff" />
      <rect
         x="50"
         y="140"
         width="10"
         height="10"
         id="rect325"
         style="fill:#ffffff" />
      <rect
         x="60"
         y="140"
         width="10"
         height="10"
         id="rect327"
         style="fill:#ffffff" />
      <rect
         x="120"
         y="140"
         width="10"
         height="10"
         id="rect329"
         style="fill:#ffffff" />
      <rect
         x="130"
         y="140"
         width="10"
         height="10"
         id="rect331"
         style="fill:#ffffff" />
      <rect
         x="140"
         y="140"
         width="10"
         height="10"
         id="rect333"
         style="fill:#ffffff" />
      <rect
         x="180"
         y="140"
         width="10"
         height="10"
         id="rect335"
         style="fill:#ffffff" />
      <rect
         x="190"
         y="140"
         width="10"
         height="10"
         id="rect337"
         style="fill:#ffffff" />
      <rect
         x="0"
         y="150"
         width="10"
         height="10"
         id="rect339"
         style="fill:#ffffff" />
      <rect
         x="60"
         y="150"
         width="10"
         height="10"
         id="rect341"
         style="fill:#ffffff" />
      <rect
         x="80"
         y="150"
         width="10"
         height="10"
         id="rect343"
         style="fill:#ffffff" />
      <rect
         x="90"
         y="150"
         width="10"
         height="10"
         id="rect345"
         style="fill:#ffffff" />
      <rect
         x="110"
         y="150"
         width="10"
         height="10"
         id="rect347"
         style="fill:#ffffff" />
      <rect
         x="130"
         y="150"
         width="10"
         height="10"
         id="rect349"
         style="fill:#ffffff" />
      <rect
         x="170"
         y="150"
         width="10"
         height="10"
         id="rect351"
         style="fill:#ffffff" />
      <rect
         x="180"
         y="150"
         width="10"
         height="10"
         id="rect353"
         style="fill:#ffffff" />
      <rect
         x="0"
         y="160"
         width="10"
         height="10"
         id="rect355"
         style="fill:#ffffff" />
      <rect
         x="20"
         y="160"
         width="10"
         height="10"
         id="rect357"
         style="fill:#ffffff" />
      <rect
         x="30"
         y="160"
         width="10"
         height="10"
         id="rect359"
         style="fill:#ffffff" />
      <rect
         x="40"
         y="160"
         width="10"
         height="10"
         id="rect361"
         style="fill:#ffffff" />
      <rect
         x="60"
         y="160"
         width="10"
         height="10"
         id="rect363"
         style="fill:#ffffff" />
      <rect
         x="80"
         y="160"
         width="10"
         height="10"
         id="rect365"
         style="fill:#ffffff" />
      <rect
         x="90"
         y="160"
         width="10"
         height="10"
         id="rect367"
         style="fill:#ffffff" />
      <rect
         x="100"
         y="160"
         width="10"
         height="10"
         id="rect369"
         style="fill:#ffffff" />
      <rect
         x="110"
         y="160"
         width="10"
         height="10"
         id="rect371"
         style="fill:#ffffff" />
      <rect
         x="120"
         y="160"
         width="10"
         height="10"
         id="rect373"
         style="fill:#ffffff" />
      <rect
         x="140"
         y="160"
         width="10"
         height="10"
         id="rect375"
         style="fill:#ffffff" />
      <rect
         x="150"
         y="160"
         width="10"
         height="10"
         id="rect377"
         style="fill:#ffffff" />
      <rect
         x="190"
         y="160"
         width="10"
         height="10"
         id="rect379"
         style="fill:#ffffff" />
      <rect
         x="200"
         y="160"
         width="10"
         height="10"
         id="rect381"
         style="fill:#ffffff" />
      <rect
         x="0"
         y="170"
         width="10"
         height="10"
         id="rect383"
         style="fill:#ffffff" />
      <rect
         x="20"
         y="170"
         width="10"
         height="10"
         id="rect385"
         style="fill:#ffffff" />
      <rect
         x="30"
         y="170"
         width="10"
         height="10"
         id="rect387"
         style="fill:#ffffff" />
      <rect
         x="40"
         y="170"
         width="10"
         height="10"
         id="rect389"
         style="fill:#ffffff" />
      <rect
         x="60"
         y="170"
         width="10"
         height="10"
         id="rect391"
         style="fill:#ffffff" />
      <rect
         x="80"
         y="170"
         width="10"
         height="10"
         id="rect393"
         style="fill:#ffffff" />
      <rect
         x="90"
         y="170"
         width="10"
         height="10"
         id="rect395"
         style="fill:#ffffff" />
      <rect
         x="130"
         y="170"
         width="10"
         height="10"
         id="rect397"
         style="fill:#ffffff" />
      <rect
         x="150"
         y="170"
         width="10"
         height="10"
         id="rect399"
         style="fill:#ffffff" />
      <rect
         x="160"
         y="170"
         width="10"
         height="10"
         id="rect401"
         style="fill:#ffffff" />
      <rect
         x="170"
         y="170"
         width="10"
         height="10"
         id="rect403"
         style="fill:#ffffff" />
      <rect
         x="0"
         y="180"
         width="10"
         height="10"
         id="rect405"
         style="fill:#ffffff" />
      <rect
         x="20"
         y="180"
         width="10"
         height="10"
         id="rect407"
         style="fill:#ffffff" />
      <rect
         x="30"
         y="180"
         width="10"
         height="10"
         id="rect409"
         style="fill:#ffffff" />
      <rect
         x="40"
         y="180"
         width="10"
         height="10"
         id="rect411"
         style="fill:#ffffff" />
      <rect
         x="60"
         y="180"
         width="10"
         height="10"
         id="rect413"
         style="fill:#ffffff" />
      <rect
         x="80"
         y="180"
         width="10"
         height="10"
         id="rect415"
         style="fill:#ffffff" />
      <rect
         x="90"
         y="180"
         width="10"
         height="10"
         id="rect417"
         style="fill:#ffffff" />
      <rect
         x="110"
         y="180"
         width="10"
         height="10"
         id="rect419"
         style="fill:#ffffff" />
      <rect
         x="120"
         y="180"
         width="10"
         height="10"
         id="rect421"
         style="fill:#ffffff" />
      <rect
         x="130"
         y="180"
         width="10"
         height="10"
         id="rect423"
         style="fill:#ffffff" />
      <rect
         x="180"
         y="180"
         width="10"
         height="10"
         id="rect425"
         style="fill:#ffffff" />
      <rect
         x="0"
         y="190"
         width="10"
         height="10"
         id="rect427"
         style="fill:#ffffff" />
      <rect
         x="60"
         y="190"
         width="10"
         height="10"
         id="rect429"
         style="fill:#ffffff" />
      <rect
         x="90"
         y="190"
         width="10"
         height="10"
         id="rect431"
         style="fill:#ffffff" />
      <rect
         x="100"
         y="190"
         width="10"
         height="10"
         id="rect433"
         style="fill:#ffffff" />
      <rect
         x="130"
         y="190"
         width="10"
         height="10"
         id="rect435"
         style="fill:#ffffff" />
      <rect
         x="170"
         y="190"
         width="10"
         height="10"
         id="rect437"
         style="fill:#ffffff" />
      <rect
         x="180"
         y="190"
         width="10"
         height="10"
         id="rect439"
         style="fill:#ffffff" />
      <rect
         x="0"
         y="200"
         width="10"
         height="10"
         id="rect441"
         style="fill:#ffffff" />
      <rect
         x="10"
         y="200"
         width="10"
         height="10"
         id="rect443"
         style="fill:#ffffff" />
      <rect
         x="20"
         y="200"
         width="10"
         height="10"
         id="rect445"
         style="fill:#ffffff" />
      <rect
         x="30"
         y="200"
         width="10"
         height="10"
         id="rect447"
         style="fill:#ffffff" />
      <rect
         x="40"
         y="200"
         width="10"
         height="10"
         id="rect449"
         style="fill:#ffffff" />
      <rect
         x="50"
         y="200"
         width="10"
         height="10"
         id="rect451"
         style="fill:#ffffff" />
      <rect
         x="60"
         y="200"
         width="10"
         height="10"
         id="rect453"
         style="fill:#ffffff" />
      <rect
         x="80"
         y="200"
         width="10"
         height="10"
         id="rect455"
         style="fill:#ffffff" />
      <rect
         x="90"
         y="200"
         width="10"
         height="10"
         id="rect457"
         style="fill:#ffffff" />
      <rect
         x="110"
         y="200"
         width="10"
         height="10"
         id="rect459"
         style="fill:#ffffff" />
      <rect
         x="140"
         y="200"
         width="10"
         height="10"
         id="rect461"
         style="fill:#ffffff" />
      <rect
         x="150"
         y="200"
         width="10"
         height="10"
         id="rect463"
         style="fill:#ffffff" />
      <rect
         x="160"
         y="200"
         width="10"
         height="10"
         id="rect465"
         style="fill:#ffffff" />
      <rect
         x="190"
         y="200"
         width="10"
         height="10"
         id="rect467"
         style="fill:#ffffff" />
    </g>
  </g>
</svg>
